HIERARCHY
ROOT Hips
{
	OFFSET 0.00000 0.00000 0.00000
	CHANNELS 6 Xposition Yposition Zposition Zrotation Yrotation Xrotation 
	JOINT LHipJoint
	{
		OFFSET 0 0 0
		CHANNELS 3 Zrotation Yrotation Xrotation
		JOINT LeftUpLeg
		{
			OFFSET 1.53139 -1.83434 0.76626
			CHANNELS 3 Zrotation Yrotation Xrotation
			JOINT LeftLeg
			{
				OFFSET 2.56112 -7.03663 0.00000
				CHANNELS 3 Zrotation Yrotation Xrotation
				JOINT LeftFoot
				{
					OFFSET 2.59983 -7.14299 0.00000
					CHANNELS 3 Zrotation Yrotation Xrotation
					JOINT LeftToeBase
					{
						OFFSET 0.13742 -0.37757 2.00054
						CHANNELS 3 Zrotation Yrotation Xrotation
						End Site
						{
							OFFSET 0.00000 -0.00000 1.02897
						}
					}
				}
			}
		}
	}
	JOINT RHipJoint
	{
		OFFSET 0 0 0
		CHANNELS 3 Zrotation Yrotation Xrotation
		JOINT RightUpLeg
		{
			OFFSET -1.40122 -1.83435 0.76627
			CHANNELS 3 Zrotation Yrotation Xrotation
			JOINT RightLeg
			{
				OFFSET -2.54052 -6.98003 0.00000
				CHANNELS 3 Zrotation Yrotation Xrotation
				JOINT RightFoot
				{
					OFFSET -2.63179 -7.23079 0.00000
					CHANNELS 3 Zrotation Yrotation Xrotation
					JOINT RightToeBase
					{
						OFFSET -0.24131 -0.66299 2.03908
						CHANNELS 3 Zrotation Yrotation Xrotation
						End Site
						{
							OFFSET -0.00000 -0.00000 1.07391
						}
					}
				}
			}
		}
	}
	JOINT LowerBack
	{
		OFFSET 0 0 0
		CHANNELS 3 Zrotation Yrotation Xrotation
		JOINT Spine
		{
			OFFSET 0.01174 2.10302 -0.29778
			CHANNELS 3 Zrotation Yrotation Xrotation
			JOINT Spine1
			{
				OFFSET 0.00772 2.13227 -0.01247
				CHANNELS 3 Zrotation Yrotation Xrotation
				JOINT Neck
				{
					OFFSET 0 0 0
					CHANNELS 3 Zrotation Yrotation Xrotation
					JOINT Neck1
					{
						OFFSET -0.09219 1.60848 0.31481
						CHANNELS 3 Zrotation Yrotation Xrotation
						JOINT Head
						{
							OFFSET 0.13974 1.65456 -0.31134
							CHANNELS 3 Zrotation Yrotation Xrotation
							End Site
							{
								OFFSET 0.04742 1.69515 -0.14578
							}
						}
					}
				}
				JOINT LeftShoulder
				{
					OFFSET 0 0 0
					CHANNELS 3 Zrotation Yrotation Xrotation
					JOINT LeftArm
					{
						OFFSET 3.24909 1.02882 -0.23993
						CHANNELS 3 Zrotation Yrotation Xrotation
						JOINT LeftForeArm
						{
							OFFSET 5.32955 -0.00000 -0.00000
							CHANNELS 3 Zrotation Yrotation Xrotation
							JOINT LeftHand
							{
								OFFSET 3.69232 -0.00000 -0.00000
								CHANNELS 3 Zrotation Yrotation Xrotation
								JOINT LeftFingerBase
								{
									OFFSET 0 0 0
									CHANNELS 3 Zrotation Yrotation Xrotation
									JOINT LeftHandIndex1
									{
										OFFSET 0.53660 -0.00000 -0.00000
										CHANNELS 3 Zrotation Yrotation Xrotation
										End Site
										{
											OFFSET 0.43262 -0.00000 -0.00000
										}
									}
								}
								JOINT LThumb
								{
									OFFSET 0 0 0
									CHANNELS 3 Zrotation Yrotation Xrotation
									End Site
									{
										OFFSET 0.43922 -0.00000 0.43922
									}
								}
							}
						}
					}
				}
				JOINT RightShoulder
				{
					OFFSET 0 0 0
					CHANNELS 3 Zrotation Yrotation Xrotation
					JOINT RightArm
					{
						OFFSET -3.21387 0.93002 -0.34594
						CHANNELS 3 Zrotation Yrotation Xrotation
						JOINT RightForeArm
						{
							OFFSET -5.23431 -0.00000 0.00000
							CHANNELS 3 Zrotation Yrotation Xrotation
							JOINT RightHand
							{
								OFFSET -3.55301 -0.00000 -0.00000
								CHANNELS 3 Zrotation Yrotation Xrotation
								JOINT RightFingerBase
								{
									OFFSET 0 0 0
									CHANNELS 3 Zrotation Yrotation Xrotation
									JOINT RightHandIndex1
									{
										OFFSET -0.77252 -0.00000 -0.00000
										CHANNELS 3 Zrotation Yrotation Xrotation
										End Site
										{
											OFFSET -0.62283 -0.00000 -0.00000
										}
									}
								}
								JOINT RThumb
								{
									OFFSET 0 0 0
									CHANNELS 3 Zrotation Yrotation Xrotation
									End Site
									{
										OFFSET -0.63234 -0.00000 0.63234
									}
								}
							}
						}
					}
				}
			}
		}
	}
}
MOTION
Frames: 16
Frame Time: .0083333
-7.7639 17.7391 -14.4243 0 0 0 0 0 0 -21 0 0 0 0 0 0 0 0 0 0 0 0 0 0 21 0 0 0 0 0 0 0 0 0 0 0 0 0 0 0 0 0 0 0 0 0 0 -16 0 0 21 0 0 11 0 0 0 -8 0 0 0 0 0 0 0 0 0 0 0 0 0 0 0 0 0 0 0 0 8 0 0 0 0 0 0 0 0 0 0 0 0 0 0 0 0 0
-7.7639 17.7391 -14.4243 26.5412 -82.6325 -28.9767 0.0000 0.0000 0.0000 -2.1771 -15.3253 -0.1438 0.7271 5.4483 15.1917 0.1242 6.9950 7.4446 0.1806 -2.7375 -7.5488 0.0000 0.0000 0.0000 14.8381 2.1438 1.2916 -2.0026 -8.8714 25.3939 -1.0968 -0.3325 -19.9232 -0.7522 5.5394 -15.4536 0.7066 1.9691 12.5721 -0.4688 2.6072 1.9869 -1.3167 1.2389 -4.9013 -9.7869 2.2946 -15.8444 4.0731 3.8416 41.2189 4.2051 0.0792 17.5854 -0.0000 -0.0000 0.0000 -87.8434 5.1047 0.3665 14.5576 -23.5262 -3.0472 -0.0000 -0.0000 9.8865 23.8030 22.8081 9.7035 -7.1250 0.0000 -0.0000 -5.5687 54.5785 -1.3135 -0.0000 -0.0000 0.0000 83.9582 -1.0020 8.5616 -17.6646 27.7256 -4.3921 0.0000 0.0000 3.7667 -17.6179 8.6777 -2.7431 7.1250 -0.0000 -0.0000 6.6800 -20.9090 3.8822
-7.7767 17.7294 -14.3355 28.2038 -82.6593 -30.5966 0.0000 0.0000 0.0000 -2.1564 -15.2101 0.4786 0.6215 5.0451 14.0373 0.1776 6.6416 8.2338 0.1978 -2.8638 -7.8998 0.0000 0.0000 0.0000 14.3549 2.4501 1.3831 -2.0209 -8.9095 25.5128 -1.0910 -0.3916 -19.8923 -0.6904 5.3119 -14.8002 0.5153 1.9380 12.5376 -0.4581 2.5418 1.9573 -1.1868 1.2101 -4.9240 -10.0058 2.3260 -15.8739 4.0621 3.9778 41.1962 4.2614 0.0991 17.5619 -0.0000 0.0000 0.0000 -87.9520 5.1335 0.2743 14.4061 -23.3123 -2.9869 -0.0000 -0.0000 9.4280 21.9201 23.4376 9.0934 -7.1250 0.0000 -0.0000 -7.7609 54.8591 -1.8878 -0.0000 0.0000 0.0000 83.7095 -0.9940 8.7526 -17.6190 27.6666 -4.3709 0.0000 0.0000 3.8295 -17.8429 8.6766 -2.7801 7.1250 -0.0000 -0.0000 6.5180 -20.8977 3.7884
-7.7908 17.7275 -14.2499 28.8534 -82.6510 -31.1903 0.0000 0.0000 0.0000 -2.0737 -15.1040 1.0891 0.5189 4.6169 12.8191 0.2353 6.5288 9.1326 0.2230 -3.0399 -8.3899 0.0000 0.0000 0.0000 14.0140 2.6721 1.3794 -2.0502 -8.9700 25.7014 -1.1308 -0.4565 -20.2739 -0.7709 5.6064 -15.6465 0.4043 1.9651 12.4706 -0.4712 2.5630 1.9363 -1.1395 1.2228 -4.9129 -10.0640 2.2682 -15.8796 4.1044 3.8979 41.1089 4.2737 0.0713 17.5193 -0.0000 -0.0000 0.0000 -87.8939 5.0022 0.2058 14.1903 -23.0061 -2.9021 -0.0000 -0.0000 9.6346 21.9214 23.5229 9.1247 -7.1250 0.0000 -0.0000 -7.7927 54.9476 -1.9124 -0.0000 -0.0000 0.0000 83.6427 -1.0178 8.7232 -17.5957 27.6364 -4.3601 0.0000 0.0000 3.9268 -17.8395 8.6303 -2.7648 7.1250 -0.0000 -0.0000 6.5210 -20.9461 3.7831
-7.8066 17.7426 -14.1651 28.4868 -82.6632 -30.7706 0.0000 0.0000 0.0000 -1.8857 -14.8316 1.6293 0.4307 4.2118 11.6733 0.3033 6.1981 10.0763 0.2586 -3.2717 -9.0361 0.0000 0.0000 0.0000 13.8714 2.8345 1.3271 -2.0733 -9.0171 25.8488 -1.1986 -0.7155 -20.9650 -1.1561 6.8267 -19.2029 0.4019 1.9682 12.4070 -0.4788 2.5675 1.9128 -1.1449 1.2255 -4.9021 -10.0304 2.2475 -15.9907 4.2520 3.8094 41.1581 4.3278 0.0581 17.5789 -0.0000 -0.0000 0.0000 -87.8314 4.8922 0.0737 13.9939 -22.7260 -2.8257 -0.0000 -0.0000 10.1614 23.1250 23.1152 9.5173 -7.1250 0.0000 -0.0000 -6.3849 54.7647 -1.5361 -0.0000 -0.0000 0.0000 83.6178 -1.0466 8.6395 -17.5693 27.6021 -4.3478 0.0000 0.0000 3.8868 -17.6984 8.7361 -2.7748 7.1250 -0.0000 -0.0000 6.6214 -20.8438 3.8575
-7.8181 17.7185 -14.0680 28.7628 -82.6299 -30.9839 0.0000 0.0000 0.0000 -1.8190 -14.4990 1.9679 0.3712 3.9131 10.8324 0.3626 5.6388 10.8274 0.2682 -3.3313 -9.2026 0.0000 0.0000 0.0000 13.5340 3.3412 1.6336 -2.0735 -9.0175 25.8499 -1.1428 -0.9392 -20.5634 -0.7630 5.5783 -15.5657 0.3654 1.9126 12.3032 -0.5056 2.4879 1.9193 -1.1354 1.1875 -4.8399 -9.9807 2.2913 -16.1446 4.2140 3.9008 41.1891 4.3243 0.0947 17.6298 -0.0000 0.0000 0.0000 -87.9007 4.8984 0.0058 13.9323 -22.6378 -2.8020 -0.0000 -0.0000 10.3389 22.4657 23.3797 9.3187 -7.1250 0.0000 -0.0000 -7.1707 54.9080 -1.7516 -0.0000 0.0000 0.0000 83.5883 -0.9573 8.5302 -17.5449 27.5705 -4.3365 0.0000 0.0000 3.9871 -17.8436 8.6651 -2.7765 7.1250 -0.0000 -0.0000 6.5176 -20.9097 3.7865
-7.8329 17.7178 -13.9681 29.4901 -82.5821 -31.6760 0.0000 0.0000 0.0000 -1.9396 -14.2691 2.4889 0.3118 3.5898 9.9253 0.4228 5.2470 11.6072 0.3040 -3.5448 -9.7994 0.0000 0.0000 0.0000 13.0924 3.4338 1.6376 -2.0910 -9.0530 25.9614 -1.1158 -1.0456 -20.3645 -0.7245 5.4389 -15.1648 0.3353 1.8173 12.2373 -0.5528 2.3556 1.9162 -1.1441 1.1229 -4.8087 -9.9511 2.3854 -16.1716 4.1532 4.0703 41.1030 4.3164 0.1664 17.5713 0.0000 -0.0000 0.0000 -87.9689 4.9649 -0.1509 13.9190 -22.6188 -2.7969 -0.0000 -0.0000 10.4552 21.2299 23.6846 8.8696 -7.1250 0.0000 -0.0000 -8.5755 54.9761 -2.1124 0.0000 -0.0000 0.0000 83.6019 -0.8515 8.4278 -17.4600 27.4602 -4.2973 0.0000 0.0000 4.3430 -17.9764 8.6505 -2.7939 7.1250 -0.0000 -0.0000 6.4222 -20.9174 3.7292
-7.8410 17.6956 -13.8637 29.9087 -82.5147 -32.0751 0.0000 0.0000 0.0000 -2.0524 -14.2069 2.6324 0.3031 3.5395 9.7846 0.4566 4.9448 12.0336 0.3406 -3.7501 -10.3745 0.0000 0.0000 0.0000 12.6475 3.6232 1.9101 -2.0680 -9.0062 25.8148 -1.1292 -0.9350 -20.4402 -0.7192 5.4194 -15.1087 0.2942 1.7639 12.2434 -0.5547 2.2797 1.9026 -1.1114 1.0861 -4.8294 -10.0164 2.4312 -16.2083 4.1989 4.1543 41.0727 4.3634 0.1997 17.5497 -0.0000 -0.0000 0.0000 -88.0888 4.9760 -0.3028 13.9161 -22.6147 -2.7958 -0.0000 -0.0000 10.7493 20.8817 23.5894 8.6802 -7.1250 0.0000 -0.0000 -8.8974 54.8093 -2.1564 -0.0000 -0.0000 0.0000 83.4446 -0.8428 8.4369 -17.4064 27.3904 -4.2726 0.0000 0.0000 4.2940 -17.9871 8.4635 -2.7358 7.1250 -0.0000 -0.0000 6.4163 -21.1117 3.6974
-7.8551 17.7014 -13.7633 30.1149 -82.4009 -32.2369 0.0000 0.0000 0.0000 -2.2161 -13.7522 2.7884 0.2783 3.3929 9.3746 0.5149 4.0096 12.7813 0.4664 -4.3804 -12.1495 0.0000 0.0000 0.0000 12.2727 3.5487 1.8745 -2.0767 -9.0241 25.8707 -1.1249 -1.2470 -20.5272 -0.9529 6.2162 -17.4131 0.2522 1.7500 12.1871 -0.5462 2.2566 1.9046 -1.0732 1.0759 -4.7985 -10.1723 2.4059 -16.3080 4.2980 4.1481 41.1118 4.4418 0.1843 17.5908 -0.0000 -0.0000 0.0000 -88.2656 4.9677 -0.2776 13.9684 -22.6895 -2.8159 -0.0000 -0.0000 11.0143 20.8886 23.5081 8.6555 -7.1250 0.0000 -0.0000 -8.8573 54.7274 -2.1289 -0.0000 -0.0000 0.0000 83.2360 -0.8857 8.4335 -17.3763 27.3512 -4.2588 0.0000 0.0000 3.9536 -18.2253 8.3580 -2.7402 7.1250 -0.0000 -0.0000 6.2453 -21.2088 3.5839
-7.8639 17.6708 -13.6523 29.6458 -82.3017 -31.7023 0.0000 0.0000 0.0000 -2.3062 -13.3024 3.0076 0.2455 3.1883 8.8033 0.5574 3.0258 13.3938 0.6543 -5.1739 -14.4052 0.0000 0.0000 0.0000 11.9087 4.0131 2.1446 -2.0887 -9.0485 25.9472 -1.1693 -1.1015 -20.8597 -0.7008 5.3510 -14.9123 0.3703 1.7236 12.0717 -0.5431 2.2378 1.9189 -1.1291 1.0657 -4.7157 -10.0995 2.3652 -16.3746 4.1370 4.1433 41.0575 4.3537 0.1760 17.5894 -0.0000 -0.0000 0.0000 -88.3348 4.8997 -0.0543 13.9881 -22.7176 -2.8235 -0.0000 -0.0000 11.0022 20.8567 23.4131 8.6088 -7.1250 0.0000 -0.0000 -8.8518 54.6237 -2.1051 -0.0000 -0.0000 0.0000 83.1268 -0.8768 8.2618 -17.3426 27.3072 -4.2433 0.0000 0.0000 3.8208 -18.2536 8.3747 -2.7502 7.1250 -0.0000 -0.0000 6.2248 -21.1899 3.5746
-7.8747 17.6644 -13.5415 29.9603 -82.1806 -31.9332 0.0000 0.0000 0.0000 -2.5593 -12.7598 3.3801 0.2007 2.8844 7.9570 0.5753 2.4256 13.7031 0.9772 -6.2929 -17.6368 0.0000 0.0000 0.0000 11.4288 4.2378 2.1114 -2.1304 -9.1326 26.2111 -1.1936 -0.9807 -21.0240 -0.6090 4.9949 -13.8941 0.3292 1.6958 12.0033 -0.5343 2.1974 1.8948 -1.0886 1.0471 -4.7058 -9.8779 2.3866 -16.4168 3.9418 4.1870 41.0281 4.2322 0.2033 17.5944 -0.0000 0.0000 0.0000 -88.4254 4.8915 0.1674 14.0327 -22.7815 -2.8408 -0.0000 -0.0000 10.9512 20.9300 23.3888 8.6330 -7.1250 0.0000 -0.0000 -8.7665 54.6133 -2.0824 -0.0000 0.0000 0.0000 83.0848 -0.8878 7.7994 -17.3072 27.2610 -4.2271 0.0000 0.0000 4.0128 -18.1814 8.3564 -2.7327 7.1250 -0.0000 -0.0000 6.2771 -21.2128 3.6018
-7.8892 17.6662 -13.4307 31.0402 -82.1688 -32.9935 0.0000 0.0000 0.0000 -2.8882 -12.0449 3.8427 0.1647 2.6144 7.2070 0.5316 2.0661 13.2175 1.3691 -7.4053 -20.9217 0.0000 0.0000 0.0000 10.9613 4.6279 2.1195 -2.1748 -9.2211 26.4895 -1.2024 -0.8442 -21.0468 -0.5046 4.5539 -12.6404 0.2247 1.7294 11.9690 -0.5143 2.2296 1.9012 -1.0127 1.0650 -4.6844 -9.9149 2.3986 -16.4628 4.0514 4.1800 41.0653 4.2922 0.2082 17.6213 -0.0000 -0.0000 0.0000 -88.5768 4.8381 0.3505 14.0773 -22.8452 -2.8581 -0.0000 -0.0000 10.9574 20.9768 23.5305 8.7026 -7.1250 0.0000 -0.0000 -8.7753 54.7677 -2.1176 -0.0000 -0.0000 0.0000 83.0295 -0.8703 7.2243 -17.2293 27.1591 -4.1915 0.0000 0.0000 4.2920 -18.2154 8.3523 -2.7368 7.1250 -0.0000 -0.0000 6.2526 -21.2153 3.5872
-7.9058 17.6385 -13.3101 35.2788 -81.9831 -37.2678 0.0000 0.0000 0.0000 -3.8163 -11.1216 4.6368 0.1184 2.2187 6.1103 0.4747 1.5764 12.5639 1.9909 -8.8471 -25.3183 0.0000 0.0000 0.0000 9.9063 5.0888 2.4380 -2.2319 -9.3333 26.8435 -1.2681 -0.5007 -21.4786 -0.4459 4.2844 -11.8783 -0.2065 1.8379 11.9237 -0.7015 2.3067 1.9552 -0.9749 1.1081 -4.6109 -10.0427 2.3343 -16.5443 4.1765 4.0873 41.1139 4.3625 0.1646 17.6721 -0.0000 0.0000 0.0000 -88.5221 4.7877 0.9104 14.1216 -22.9083 -2.8753 -0.0000 -0.0000 10.6614 21.0791 23.6606 8.7933 -7.1250 0.0000 -0.0000 -8.7220 54.9214 -2.1373 -0.0000 0.0000 0.0000 83.0410 -0.8808 6.6978 -17.1666 27.0769 -4.1629 0.0000 0.0000 4.4576 -18.0814 8.4262 -2.7391 7.1250 -0.0000 -0.0000 6.3486 -21.1454 3.6530
-7.9220 17.6235 -13.1837 38.5575 -81.7319 -40.5388 0.0000 0.0000 0.0000 -4.7435 -10.3328 5.2515 0.0875 1.9081 5.2516 0.4198 1.2060 11.8783 2.4378 -9.7238 -28.0870 0.0000 0.0000 0.0000 8.9069 5.5137 2.6460 -2.2829 -9.4320 27.1562 -1.3146 -0.2804 -21.7882 -0.4057 4.0893 -11.3281 -0.5394 1.8863 11.8794 -0.8552 2.3200 1.9624 -0.9484 1.1184 -4.5856 -10.0699 2.3403 -16.5918 4.1652 4.1167 41.1789 4.3722 0.1648 17.7193 -0.0000 0.0000 0.0000 -88.5175 4.7971 1.4122 14.1928 -23.0096 -2.9030 -0.0000 -0.0000 10.3893 20.8803 23.7060 8.7193 -7.1250 0.0000 -0.0000 -8.9465 54.9285 -2.1945 -0.0000 0.0000 0.0000 82.9632 -1.0114 6.5186 -17.1807 27.0954 -4.1693 0.0000 0.0000 4.1039 -18.0340 8.3536 -2.7081 7.1250 -0.0000 -0.0000 6.3836 -21.2238 3.6620
-7.9287 17.5961 -13.0540 38.2445 -81.6670 -40.2390 0.0000 0.0000 0.0000 -5.0914 -9.9521 5.2390 0.0970 2.0090 5.5305 0.3398 1.2540 10.6439 2.2891 -9.4440 -27.1944 0.0000 0.0000 0.0000 8.5498 5.7558 2.7536 -2.3051 -9.4747 27.2917 -1.3079 -0.7015 -21.8847 -0.5088 4.5723 -12.6925 -0.4221 1.8423 11.9307 -0.8049 2.2794 1.9404 -0.9579 1.0970 -4.6349 -9.9095 2.4043 -16.6090 3.9743 4.2417 41.1810 4.2779 0.2135 17.7251 -0.0000 0.0000 0.0000 -88.6895 4.7674 1.6575 14.2617 -23.1076 -2.9300 -0.0000 -0.0000 10.2417 20.8269 23.5320 8.6361 -7.1250 0.0000 -0.0000 -8.9306 54.7397 -2.1494 -0.0000 0.0000 0.0000 82.7903 -1.1418 6.4337 -17.2086 27.1319 -4.1820 0.0000 0.0000 3.7741 -18.3851 8.0652 -2.6698 7.1250 -0.0000 -0.0000 6.1326 -21.5060 3.4770
-7.9338 17.5678 -12.9259 37.5966 -81.5839 -39.7570 0.0000 0.0000 0.0000 -5.4405 -9.6847 5.1667 0.1228 2.2593 6.2228 0.2534 1.6156 9.0817 1.8995 -8.6536 -24.7176 0.0000 0.0000 0.0000 8.2486 5.8620 3.0102 -2.3169 -9.4971 27.3631 -1.2862 -1.2880 -21.9317 -0.7128 5.3958 -15.0409 -0.3222 1.7844 12.1622 -0.7312 2.2157 1.9518 -0.9349 1.0633 -4.7508 -9.7982 2.4474 -16.6712 3.7972 4.3525 41.2140 4.1994 0.2473 17.7615 -0.0000 0.0000 0.0000 -88.9225 4.7717 1.7752 14.4056 -23.3116 -2.9868 -0.0000 -0.0000 10.0905 20.9027 23.4093 8.6280 -7.1250 0.0000 -0.0000 -8.8029 54.6289 -2.0945 -0.0000 0.0000 0.0000 82.6395 -1.2133 6.0873 -17.1611 27.0696 -4.1604 0.0000 0.0000 3.9764 -18.5958 8.0249 -2.6892 7.1250 -0.0000 -0.0000 5.9803 -21.5371 3.3855
